<svg xmlns="http://www.w3.org/2000/svg" width="500" height="500" style="shape-rendering:geometricPrecision;text-rendering:geometricPrecision;image-rendering:optimizeQuality;fill-rule:evenodd;clip-rule:evenodd"><path style="opacity:1" fill="#fefefe" d="M-.5-.5h500v500H-.5V-.5z"/><path style="opacity:1" fill="#080808" d="M251.5 3.5c4.139-.796 7.305.537 9.5 4a484.008 484.008 0 0 1 0 44c-.85 3.602-3.183 5.27-7 5-3.82-.147-6.153-2.147-7-6a400.05 400.05 0 0 1 0-40c.53-3.085 2.03-5.418 4.5-7z"/><path style="opacity:1" fill="#ff3534" d="M132.5 45.5c2.357-.163 4.69.003 7 .5L170 76.5c1.868 3.44 1.368 6.606-1.5 9.5-3.914 2.18-7.581 1.846-11-1L131 58.5c-3.544-4.818-3.044-9.151 1.5-13z"/><path style="opacity:1" fill="#ff3735" d="M369.5 45.5c7.613-.886 11.113 2.447 10.5 10A257.106 257.106 0 0 1 346.5 88c-6.4-1.097-8.9-4.93-7.5-11.5a1340.428 1340.428 0 0 0 30.5-31z"/><path style="opacity:1" fill="#040404" d="M249.5 78.5c9.723.046 13.389 4.712 11 14-1.631 1.797-3.631 2.964-6 3.5-36.394 2.608-62.228 20.442-77.5 53.5-6.146 17.348-7.146 35.015-3 53a1206.945 1206.945 0 0 1 27 60 214.397 214.397 0 0 1 14 52l2.5 2.5 38 1c5.595 2.354 7.428 6.521 5.5 12.5-1.637 2.31-3.804 3.81-6.5 4.5-13 .667-26 .667-39 0-7.817-1.154-13.317-5.321-16.5-12.5-3.427-22.949-10.093-44.949-20-66l-18-38c-15.362-43.87-6.529-82.037 26.5-114.5 17.883-15.447 38.55-23.947 62-25.5z"/><path style="opacity:1" fill="#ff3232" d="M286.5 87.5c8.933.882 17.1 3.882 24.5 9a14.377 14.377 0 0 1 1.5 6.5 118.117 118.117 0 0 0-2.5 21.5c6.033 11.542 15.199 19.209 27.5 23a76.092 76.092 0 0 0 12-2.5c5.34-1.534 9.84-.367 13.5 3.5a147.615 147.615 0 0 1 7.5 18.5c-.801 2.598-2.134 4.931-4 7a66.694 66.694 0 0 0-14.5 9.5 22.573 22.573 0 0 0-4 8 91.091 91.091 0 0 0 1 26c3.947 6.27 9.447 10.77 16.5 13.5l4.5 4.5c-.291 8.211-2.624 15.878-7 23-2.306 2.388-5.139 3.388-8.5 3-5.992-.997-11.992-1.997-18-3-3.924.25-7.258 1.75-10 4.5-6.296 5.289-11.462 11.456-15.5 18.5a772.577 772.577 0 0 0 2 27c-7.591 6.715-16.424 9.882-26.5 9.5a50.729 50.729 0 0 1-8.5-12.5c-2.987-3.988-6.82-6.821-11.5-8.5l-16-1c-10.379-5.139-13.212-12.972-8.5-23.5l4.5-4.5c34.075-.105 57.242-15.938 69.5-47.5 4.924-28.508-3.909-51.675-26.5-69.5a68.669 68.669 0 0 0-14-7 130.21 130.21 0 0 1-22-6c-9.755-9.47-9.088-18.136 2-26 8.535-.837 15.702-4.337 21.5-10.5 1.967-5.637 5.133-10.304 9.5-14z"/><path style="opacity:1" fill="#ff3533" d="M239.5 156.5a4.934 4.934 0 0 1 3 .5c8.605 12.46 17.271 12.46 26 0 8.619-.556 11.953 3.277 10 11.5.459 5.304 3.126 9.137 8 11.5a68.888 68.888 0 0 1 12 .5c2.344 3.001 3.177 6.335 2.5 10-11.588 9.134-11.255 17.801 1 26 .382 8.455-3.452 11.455-11.5 9-5.734.567-9.568 3.567-11.5 9a72.645 72.645 0 0 0 0 11c-2.912 3.044-6.412 4.211-10.5 3.5-4.132-8.231-10.466-10.564-19-7a29.964 29.964 0 0 0-6 7c-9.045.999-12.378-2.835-10-11.5-1.268-5.111-4.268-8.944-9-11.5-3.162-.602-6.162-.102-9 1.5-2.266-.431-3.766-1.764-4.5-4-1.15-2.254-1.484-4.587-1-7l7-7c3.705-8.407 1.372-14.407-7-18-1.181-10.14 3.319-13.974 13.5-11.5 4.735-1.068 7.902-3.901 9.5-8.5a186.769 186.769 0 0 1 0-11c2.013-1.748 4.18-3.082 6.5-4z"/><path style="opacity:1" fill="#020202" d="M84.5 163.5c14.67-.167 29.337 0 44 .5 4.643 2.072 6.143 5.572 4.5 10.5a6.978 6.978 0 0 1-3.5 2.5 552.224 552.224 0 0 1-47 0c-4.55-5.403-3.882-9.903 2-13.5z"/><path style="opacity:1" fill="#070707" d="M380.5 163.5c14.337-.167 28.671 0 43 .5 5.803 2.11 7.303 5.943 4.5 11.5a6.978 6.978 0 0 1-3.5 2.5 484.008 484.008 0 0 1-44 0c-6.632-4.914-6.632-9.747 0-14.5z"/><path style="opacity:1" fill="#fffcfc" d="M250.5 177.5c21.994.159 31.827 11.159 29.5 33-5.47 14.492-15.97 20.326-31.5 17.5-17.232-8.064-22.065-20.897-14.5-38.5 4.305-5.828 9.805-9.828 16.5-12z"/><path style="opacity:1" d="M204.5 351.5c33.335-.167 66.668 0 100 .5 3.777 2.955 4.943 6.788 3.5 11.5-1.637 2.31-3.804 3.81-6.5 4.5-32 .667-64 .667-96 0-4.655-2.897-6.155-7.063-4.5-12.5a19.552 19.552 0 0 0 3.5-4z"/><path style="opacity:1" fill="#ff3231" d="M228.5 382.5c17.003-.167 34.003 0 51 .5 5.148 3.334 6.314 7.834 3.5 13.5a6.978 6.978 0 0 1-3.5 2.5c-17 .667-34 .667-51 0-3.867-3.66-5.034-8.16-3.5-13.5a30.233 30.233 0 0 1 3.5-3z"/><path style="opacity:1" fill="#ff3836" d="M302.5 443.5c-3.798.983-7.798 1.317-12 1-1.942-6.159-6.275-9.159-13-9-10.841 1.798-16.175 8.298-16 19.5-.305 17.048 7.695 23.714 24 20 3.096-2.029 4.762-4.862 5-8.5h12c-1.391 11.226-7.725 17.726-19 19.5-21.259 1.415-32.592-8.585-34-30 1.543-21.88 13.21-31.88 35-30 9.822 1.99 15.822 7.823 18 17.5z"/><path style="opacity:1" fill="#797979" d="M48.5 427.5h-12v58a870.829 870.829 0 0 1-1-59c4.532-.318 8.866.015 13 1z"/><path style="opacity:1" fill="#020202" d="M48.5 445.5c-.283-.789-.783-1.456-1.5-2a882.407 882.407 0 0 0-.5 42h-10v-58h12a1319.503 1319.503 0 0 0 23.5 40 840.9 840.9 0 0 0 .5-41h11v59a43.116 43.116 0 0 1-13-1 20896.651 20896.651 0 0 1-22-39z"/><path style="opacity:1" fill="#ff3534" d="M399.5 426.5h10v59h-10a12.93 12.93 0 0 0-.5-5c-6.791 6.977-14.291 7.81-22.5 2.5-7.533-7.659-10.033-16.825-7.5-27.5 3.784-10.798 11.284-15.298 22.5-13.5 3.039 1.031 5.539 2.865 7.5 5.5.5-6.992.666-13.992.5-21z"/><path style="opacity:1" fill="#070707" d="M139.5 465.5c-11.02-.332-22.02.001-33 1 .124.607.457.94 1 1 1.592 7.766 6.259 10.933 14 9.5 2.576-.782 4.576-2.282 6-4.5 12.823-2.35 13.823 1.15 3 10.5-11.66 6.055-21.826 4.222-30.5-5.5-6.043-12.259-4.21-23.093 5.5-32.5 9.833-5.152 19.166-4.318 28 2.5 4.592 5.11 6.592 11.11 6 18z"/><path style="opacity:1" fill="#090909" d="M213.5 441.5c8.412-1.113 15.578 1.22 21.5 7l2 4c.5 10.995.667 21.995.5 33h-10a12.93 12.93 0 0 0-.5-5c-4.968 5.615-11.135 7.448-18.5 5.5-8.182-3.865-10.682-10.031-7.5-18.5l4.5-4.5a68.15 68.15 0 0 1 22-4.5c-.977-8.158-5.311-10.658-13-7.5a10.94 10.94 0 0 0-3 4.5 25.879 25.879 0 0 1-10 1c1.04-7.373 5.04-12.373 12-15z"/><path style="opacity:1" fill="#ff3735" d="M329.5 441.5c19.364-1.135 28.53 7.865 27.5 27-3.987 13.754-13.154 19.587-27.5 17.5-13.411-5.316-18.578-15.15-15.5-29.5 3.106-7.275 8.272-12.275 15.5-15z"/><path style="opacity:1" fill="#ff3634" d="M464.5 457.5v8h-32c-.237 1.291.096 2.291 1 3 3.38 9.183 9.38 11.35 18 6.5a18.473 18.473 0 0 0 2-3.5c3.829-.569 7.163.098 10 2-5.093 10.326-13.426 14.492-25 12.5-10.704-3.378-16.038-10.711-16-22 .702-16.69 9.369-24.024 26-22 8.481 1.982 13.815 7.149 16 15.5z"/><path style="opacity:1" fill="#070707" d="M148.5 443.5c3.811-1.145 7.811-1.312 12-.5a290.854 290.854 0 0 1 9 13.5 137.896 137.896 0 0 0 9-13 24.551 24.551 0 0 1 12-.5 219.357 219.357 0 0 0-14 21 701.525 701.525 0 0 0 14 20.5c-4 1.333-8 1.333-12 0a133.329 133.329 0 0 0-9-13 97.102 97.102 0 0 0-9 13.5c-4 .667-8 .667-12 0a219.357 219.357 0 0 0 14-21 147.56 147.56 0 0 0-14-20.5z"/><path style="opacity:1" fill="#727272" d="m48.5 445.5-2 40c-.167-14.004 0-28.004.5-42 .717.544 1.217 1.211 1.5 2z"/><path style="opacity:1" fill="#ff7c7a" d="M302.5 443.5c.543.06.876.393 1 1-4.484 1.311-8.817 1.311-13 0 4.202.317 8.202-.017 12-1z"/><path style="opacity:1" fill="#efefef" d="M114.5 449.5c3.963-.411 7.63.422 11 2.5 1.951 1.734 2.951 3.901 3 6.5h-21c1.186-3.857 3.52-6.857 7-9z"/><path style="opacity:1" fill="#fff9f9" d="M331.5 450.5c6.85-.828 11.683 1.839 14.5 8 1.22 6.066.054 11.566-3.5 16.5-9.13 4.853-15.296 2.353-18.5-7.5-1.297-7.401 1.203-13.068 7.5-17z"/><path style="opacity:1" fill="snow" d="M385.5 450.5c7.053-1.163 11.886 1.504 14.5 8 1.22 6.066.054 11.566-3.5 16.5-8.842 4.495-14.675 1.995-17.5-7.5-1.695-7.259.472-12.925 6.5-17z"/><path style="opacity:1" fill="#fff2f2" d="M440.5 449.5c7.347-.962 12.013 2.038 14 9h-21c.666-4.346 2.999-7.346 7-9z"/><path style="opacity:1" fill="#787878" d="m139.5 465.5-32 2c-.543-.06-.876-.393-1-1a273.104 273.104 0 0 1 33-1z"/><path style="opacity:1" fill="#ff8c8b" d="M464.5 457.5c.977 2.787 1.31 5.787 1 9-11.052-.643-21.719.024-32 2-.904-.709-1.237-1.709-1-3h32v-8z"/><path style="opacity:1" fill="#f0f0f0" d="M222.5 465.5h5c-.878 10.845-6.378 14.512-16.5 11-.667-2-.667-4 0-6 3.54-2.561 7.373-4.228 11.5-5z"/><path style="opacity:1" fill="#ff9292" d="M453.5 471.5c3.462-.982 7.129-1.315 11-1 .237 1.291-.096 2.291-1 3-2.837-1.902-6.171-2.569-10-2z"/></svg>