<?xml version="1.0" encoding="UTF-8"?>
<!DOCTYPE svg PUBLIC "-//W3C//DTD SVG 1.1//EN" "http://www.w3.org/Graphics/SVG/1.1/DTD/svg11.dtd">
<svg xmlns="http://www.w3.org/2000/svg" version="1.1" width="500px" height="500px" style="shape-rendering:geometricPrecision; text-rendering:geometricPrecision; image-rendering:optimizeQuality; fill-rule:evenodd; clip-rule:evenodd" xmlns:xlink="http://www.w3.org/1999/xlink">
<g><path style="opacity:1" fill="#fefefe" d="M -0.5,-0.5 C 166.167,-0.5 332.833,-0.5 499.5,-0.5C 499.5,166.167 499.5,332.833 499.5,499.5C 332.833,499.5 166.167,499.5 -0.5,499.5C -0.5,332.833 -0.5,166.167 -0.5,-0.5 Z"/></g>
<g><path style="opacity:1" fill="#080808" d="M 251.5,3.5 C 255.639,2.70415 258.805,4.03749 261,7.5C 261.667,22.1667 261.667,36.8333 261,51.5C 260.15,55.1024 257.817,56.7691 254,56.5C 250.18,56.3533 247.847,54.3533 247,50.5C 246.333,37.1667 246.333,23.8333 247,10.5C 247.53,7.41501 249.03,5.08167 251.5,3.5 Z"/></g>
<g><path style="opacity:1" fill="#ff3534" d="M 132.5,45.5 C 134.857,45.3367 137.19,45.5034 139.5,46C 149.667,56.1667 159.833,66.3333 170,76.5C 171.868,79.9391 171.368,83.1057 168.5,86C 164.586,88.1798 160.919,87.8464 157.5,85C 148.667,76.1667 139.833,67.3333 131,58.5C 127.456,53.682 127.956,49.3486 132.5,45.5 Z"/></g>
<g><path style="opacity:1" fill="#ff3735" d="M 369.5,45.5 C 377.113,44.6141 380.613,47.9474 380,55.5C 369.799,67.3683 358.632,78.2016 346.5,88C 340.1,86.9033 337.6,83.0699 339,76.5C 349.314,66.3521 359.481,56.0187 369.5,45.5 Z"/></g>
<g><path style="opacity:1" fill="#040404" d="M 249.5,78.5 C 259.223,78.5456 262.889,83.2123 260.5,92.5C 258.869,94.2974 256.869,95.4641 254.5,96C 218.106,98.6082 192.272,116.442 177,149.5C 170.854,166.848 169.854,184.515 174,202.5C 183.549,222.263 192.549,242.263 201,262.5C 207.856,279.258 212.522,296.591 215,314.5C 215.833,315.333 216.667,316.167 217.5,317C 230.167,317.333 242.833,317.667 255.5,318C 261.095,320.354 262.928,324.521 261,330.5C 259.363,332.81 257.196,334.31 254.5,335C 241.5,335.667 228.5,335.667 215.5,335C 207.683,333.846 202.183,329.679 199,322.5C 195.573,299.551 188.907,277.551 179,256.5C 173,243.833 167,231.167 161,218.5C 145.638,174.63 154.471,136.463 187.5,104C 205.383,88.5532 226.05,80.0532 249.5,78.5 Z"/></g>
<g><path style="opacity:1" fill="#ff3232" d="M 286.5,87.5 C 295.433,88.3818 303.6,91.3818 311,96.5C 312.006,98.5336 312.506,100.7 312.5,103C 311.004,110.129 310.171,117.295 310,124.5C 316.033,136.042 325.199,143.709 337.5,147.5C 341.573,146.988 345.573,146.155 349.5,145C 354.84,143.466 359.34,144.633 363,148.5C 365.922,154.509 368.422,160.675 370.5,167C 369.699,169.598 368.366,171.931 366.5,174C 361.239,176.545 356.406,179.712 352,183.5C 350.139,185.888 348.806,188.554 348,191.5C 347.09,200.244 347.424,208.911 349,217.5C 352.947,223.77 358.447,228.27 365.5,231C 367,232.5 368.5,234 370,235.5C 369.709,243.711 367.376,251.378 363,258.5C 360.694,260.888 357.861,261.888 354.5,261.5C 348.508,260.503 342.508,259.503 336.5,258.5C 332.576,258.75 329.242,260.25 326.5,263C 320.204,268.289 315.038,274.456 311,281.5C 311.51,290.528 312.177,299.528 313,308.5C 305.409,315.215 296.576,318.382 286.5,318C 283.048,314.266 280.215,310.1 278,305.5C 275.013,301.512 271.18,298.679 266.5,297C 261.167,296.667 255.833,296.333 250.5,296C 240.121,290.861 237.288,283.028 242,272.5C 243.5,271 245,269.5 246.5,268C 280.575,267.895 303.742,252.062 316,220.5C 320.924,191.992 312.091,168.825 289.5,151C 285.112,148.139 280.446,145.806 275.5,144C 267.964,142.636 260.631,140.636 253.5,138C 243.745,128.53 244.412,119.864 255.5,112C 264.035,111.163 271.202,107.663 277,101.5C 278.967,95.8631 282.133,91.1964 286.5,87.5 Z"/></g>
<g><path style="opacity:1" fill="#ff3533" d="M 239.5,156.5 C 240.552,156.351 241.552,156.517 242.5,157C 251.105,169.46 259.771,169.46 268.5,157C 277.119,156.444 280.453,160.277 278.5,168.5C 278.959,173.804 281.626,177.637 286.5,180C 290.547,179.819 294.547,179.985 298.5,180.5C 300.844,183.501 301.677,186.835 301,190.5C 289.412,199.634 289.745,208.301 302,216.5C 302.382,224.955 298.548,227.955 290.5,225.5C 284.766,226.067 280.932,229.067 279,234.5C 278.722,238.194 278.722,241.861 279,245.5C 276.088,248.544 272.588,249.711 268.5,249C 264.368,240.769 258.034,238.436 249.5,242C 247.126,244.039 245.126,246.372 243.5,249C 234.455,249.999 231.122,246.165 233.5,237.5C 232.232,232.389 229.232,228.556 224.5,226C 221.338,225.398 218.338,225.898 215.5,227.5C 213.234,227.069 211.734,225.736 211,223.5C 209.85,221.246 209.516,218.913 210,216.5C 212.333,214.167 214.667,211.833 217,209.5C 220.705,201.093 218.372,195.093 210,191.5C 208.819,181.36 213.319,177.526 223.5,180C 228.235,178.932 231.402,176.099 233,171.5C 232.892,167.843 232.892,164.177 233,160.5C 235.013,158.752 237.18,157.418 239.5,156.5 Z"/></g>
<g><path style="opacity:1" fill="#020202" d="M 84.5,163.5 C 99.1705,163.333 113.837,163.5 128.5,164C 133.143,166.072 134.643,169.572 133,174.5C 132.097,175.701 130.931,176.535 129.5,177C 113.833,177.667 98.1667,177.667 82.5,177C 77.9509,171.597 78.6175,167.097 84.5,163.5 Z"/></g>
<g><path style="opacity:1" fill="#070707" d="M 380.5,163.5 C 394.837,163.333 409.171,163.5 423.5,164C 429.303,166.11 430.803,169.943 428,175.5C 427.097,176.701 425.931,177.535 424.5,178C 409.833,178.667 395.167,178.667 380.5,178C 373.868,173.086 373.868,168.253 380.5,163.5 Z"/></g>
<g><path style="opacity:1" fill="#fffcfc" d="M 250.5,177.5 C 272.494,177.659 282.327,188.659 280,210.5C 274.53,224.992 264.03,230.826 248.5,228C 231.268,219.936 226.435,207.103 234,189.5C 238.305,183.672 243.805,179.672 250.5,177.5 Z"/></g>
<g><path style="opacity:1" fill="#000000" d="M 204.5,351.5 C 237.835,351.333 271.168,351.5 304.5,352C 308.277,354.955 309.443,358.788 308,363.5C 306.363,365.81 304.196,367.31 301.5,368C 269.5,368.667 237.5,368.667 205.5,368C 200.845,365.103 199.345,360.937 201,355.5C 202.376,354.295 203.542,352.962 204.5,351.5 Z"/></g>
<g><path style="opacity:1" fill="#ff3231" d="M 228.5,382.5 C 245.503,382.333 262.503,382.5 279.5,383C 284.648,386.334 285.814,390.834 283,396.5C 282.097,397.701 280.931,398.535 279.5,399C 262.5,399.667 245.5,399.667 228.5,399C 224.633,395.34 223.466,390.84 225,385.5C 226.145,384.364 227.312,383.364 228.5,382.5 Z"/></g>
<g><path style="opacity:1" fill="#ff3836" d="M 302.5,443.5 C 298.702,444.483 294.702,444.817 290.5,444.5C 288.558,438.341 284.225,435.341 277.5,435.5C 266.659,437.298 261.325,443.798 261.5,455C 261.195,472.048 269.195,478.714 285.5,475C 288.596,472.971 290.262,470.138 290.5,466.5C 294.5,466.5 298.5,466.5 302.5,466.5C 301.109,477.726 294.775,484.226 283.5,486C 262.241,487.415 250.908,477.415 249.5,456C 251.043,434.12 262.71,424.12 284.5,426C 294.322,427.99 300.322,433.823 302.5,443.5 Z"/></g>
<g><path style="opacity:1" fill="#797979" d="M 48.5,427.5 C 44.5,427.5 40.5,427.5 36.5,427.5C 36.5,446.833 36.5,466.167 36.5,485.5C 35.5029,466.007 35.1696,446.34 35.5,426.5C 40.0323,426.182 44.3656,426.515 48.5,427.5 Z"/></g>
<g><path style="opacity:1" fill="#020202" d="M 48.5,445.5 C 48.2172,444.711 47.7172,444.044 47,443.5C 46.5001,457.496 46.3334,471.496 46.5,485.5C 43.1667,485.5 39.8333,485.5 36.5,485.5C 36.5,466.167 36.5,446.833 36.5,427.5C 40.5,427.5 44.5,427.5 48.5,427.5C 56.0712,440.924 63.9045,454.257 72,467.5C 72.4999,453.837 72.6666,440.171 72.5,426.5C 76.1667,426.5 79.8333,426.5 83.5,426.5C 83.5,446.167 83.5,465.833 83.5,485.5C 79.1161,485.826 74.7828,485.492 70.5,484.5C 63.1387,471.483 55.8054,458.483 48.5,445.5 Z"/></g>
<g><path style="opacity:1" fill="#ff3534" d="M 399.5,426.5 C 402.833,426.5 406.167,426.5 409.5,426.5C 409.5,446.167 409.5,465.833 409.5,485.5C 406.167,485.5 402.833,485.5 399.5,485.5C 399.66,483.801 399.494,482.134 399,480.5C 392.209,487.477 384.709,488.31 376.5,483C 368.967,475.341 366.467,466.175 369,455.5C 372.784,444.702 380.284,440.202 391.5,442C 394.539,443.031 397.039,444.865 399,447.5C 399.5,440.508 399.666,433.508 399.5,426.5 Z"/></g>
<g><path style="opacity:1" fill="#070707" d="M 139.5,465.5 C 128.48,465.168 117.48,465.501 106.5,466.5C 106.624,467.107 106.957,467.44 107.5,467.5C 109.092,475.266 113.759,478.433 121.5,477C 124.076,476.218 126.076,474.718 127.5,472.5C 140.323,470.15 141.323,473.65 130.5,483C 118.84,489.055 108.674,487.222 100,477.5C 93.9573,465.241 95.7906,454.407 105.5,445C 115.333,439.848 124.666,440.682 133.5,447.5C 138.092,452.61 140.092,458.61 139.5,465.5 Z"/></g>
<g><path style="opacity:1" fill="#090909" d="M 213.5,441.5 C 221.912,440.387 229.078,442.72 235,448.5C 235.667,449.833 236.333,451.167 237,452.5C 237.5,463.495 237.667,474.495 237.5,485.5C 234.167,485.5 230.833,485.5 227.5,485.5C 227.66,483.801 227.494,482.134 227,480.5C 222.032,486.115 215.865,487.948 208.5,486C 200.318,482.135 197.818,475.969 201,467.5C 202.5,466 204,464.5 205.5,463C 212.577,460.285 219.911,458.785 227.5,458.5C 226.523,450.342 222.189,447.842 214.5,451C 213.128,452.242 212.128,453.742 211.5,455.5C 208.232,456.487 204.898,456.82 201.5,456.5C 202.54,449.127 206.54,444.127 213.5,441.5 Z"/></g>
<g><path style="opacity:1" fill="#ff3735" d="M 329.5,441.5 C 348.864,440.365 358.03,449.365 357,468.5C 353.013,482.254 343.846,488.087 329.5,486C 316.089,480.684 310.922,470.85 314,456.5C 317.106,449.225 322.272,444.225 329.5,441.5 Z"/></g>
<g><path style="opacity:1" fill="#ff3634" d="M 464.5,457.5 C 464.5,460.167 464.5,462.833 464.5,465.5C 453.833,465.5 443.167,465.5 432.5,465.5C 432.263,466.791 432.596,467.791 433.5,468.5C 436.88,477.683 442.88,479.85 451.5,475C 452.305,473.887 452.972,472.721 453.5,471.5C 457.329,470.931 460.663,471.598 463.5,473.5C 458.407,483.826 450.074,487.992 438.5,486C 427.796,482.622 422.462,475.289 422.5,464C 423.202,447.31 431.869,439.976 448.5,442C 456.981,443.982 462.315,449.149 464.5,457.5 Z"/></g>
<g><path style="opacity:1" fill="#070707" d="M 148.5,443.5 C 152.311,442.355 156.311,442.188 160.5,443C 163.624,447.414 166.624,451.914 169.5,456.5C 172.747,452.341 175.747,448.008 178.5,443.5C 182.459,442.34 186.459,442.173 190.5,443C 185.426,449.738 180.759,456.738 176.5,464C 181.037,470.903 185.704,477.737 190.5,484.5C 186.5,485.833 182.5,485.833 178.5,484.5C 175.734,479.955 172.734,475.622 169.5,471.5C 166.128,475.742 163.128,480.242 160.5,485C 156.5,485.667 152.5,485.667 148.5,485C 153.574,478.262 158.241,471.262 162.5,464C 158.376,456.725 153.709,449.891 148.5,443.5 Z"/></g>
<g><path style="opacity:1" fill="#727272" d="M 48.5,445.5 C 47.8333,458.833 47.1667,472.167 46.5,485.5C 46.3334,471.496 46.5001,457.496 47,443.5C 47.7172,444.044 48.2172,444.711 48.5,445.5 Z"/></g>
<g><path style="opacity:1" fill="#ff7c7a" d="M 302.5,443.5 C 303.043,443.56 303.376,443.893 303.5,444.5C 299.016,445.811 294.683,445.811 290.5,444.5C 294.702,444.817 298.702,444.483 302.5,443.5 Z"/></g>
<g><path style="opacity:1" fill="#efefef" d="M 114.5,449.5 C 118.463,449.089 122.13,449.922 125.5,452C 127.451,453.734 128.451,455.901 128.5,458.5C 121.5,458.5 114.5,458.5 107.5,458.5C 108.686,454.643 111.02,451.643 114.5,449.5 Z"/></g>
<g><path style="opacity:1" fill="#fff9f9" d="M 331.5,450.5 C 338.35,449.672 343.183,452.339 346,458.5C 347.22,464.566 346.054,470.066 342.5,475C 333.37,479.853 327.204,477.353 324,467.5C 322.703,460.099 325.203,454.432 331.5,450.5 Z"/></g>
<g><path style="opacity:1" fill="#fffafa" d="M 385.5,450.5 C 392.553,449.337 397.386,452.004 400,458.5C 401.22,464.566 400.054,470.066 396.5,475C 387.658,479.495 381.825,476.995 379,467.5C 377.305,460.241 379.472,454.575 385.5,450.5 Z"/></g>
<g><path style="opacity:1" fill="#fff2f2" d="M 440.5,449.5 C 447.847,448.538 452.513,451.538 454.5,458.5C 447.5,458.5 440.5,458.5 433.5,458.5C 434.166,454.154 436.499,451.154 440.5,449.5 Z"/></g>
<g><path style="opacity:1" fill="#787878" d="M 139.5,465.5 C 128.833,466.167 118.167,466.833 107.5,467.5C 106.957,467.44 106.624,467.107 106.5,466.5C 117.48,465.501 128.48,465.168 139.5,465.5 Z"/></g>
<g><path style="opacity:1" fill="#ff8c8b" d="M 464.5,457.5 C 465.477,460.287 465.81,463.287 465.5,466.5C 454.448,465.857 443.781,466.524 433.5,468.5C 432.596,467.791 432.263,466.791 432.5,465.5C 443.167,465.5 453.833,465.5 464.5,465.5C 464.5,462.833 464.5,460.167 464.5,457.5 Z"/></g>
<g><path style="opacity:1" fill="#f0f0f0" d="M 222.5,465.5 C 224.167,465.5 225.833,465.5 227.5,465.5C 226.622,476.345 221.122,480.012 211,476.5C 210.333,474.5 210.333,472.5 211,470.5C 214.54,467.939 218.373,466.272 222.5,465.5 Z"/></g>
<g><path style="opacity:1" fill="#ff9292" d="M 453.5,471.5 C 456.962,470.518 460.629,470.185 464.5,470.5C 464.737,471.791 464.404,472.791 463.5,473.5C 460.663,471.598 457.329,470.931 453.5,471.5 Z"/></g>
</svg>
