<?xml version="1.0" encoding="UTF-8"?>
<!DOCTYPE svg PUBLIC "-//W3C//DTD SVG 1.1//EN" "http://www.w3.org/Graphics/SVG/1.1/DTD/svg11.dtd">
<svg xmlns="http://www.w3.org/2000/svg" version="1.1" width="500px" height="500px" style="shape-rendering:geometricPrecision; text-rendering:geometricPrecision; image-rendering:optimizeQuality; fill-rule:evenodd; clip-rule:evenodd" xmlns:xlink="http://www.w3.org/1999/xlink">
<g><path style="opacity:1" fill="transparent" d="M -0.5,-0.5 C 166.167,-0.5 332.833,-0.5 499.5,-0.5C 499.5,166.167 499.5,332.833 499.5,499.5C 332.833,499.5 166.167,499.5 -0.5,499.5C -0.5,332.833 -0.5,166.167 -0.5,-0.5 Z"/></g>
<g><path style="opacity:1" fill="#fffefb" d="M 238.5,9.5 C 243.439,8.3519 246.939,10.0186 249,14.5C 249.667,28.8333 249.667,43.1667 249,57.5C 246.928,62.1433 243.428,63.6433 238.5,62C 236.513,60.6811 235.346,58.8477 235,56.5C 234.333,42.5 234.333,28.5 235,14.5C 235.997,12.6769 237.164,11.0103 238.5,9.5 Z"/></g>
<g><path style="opacity:1" fill="#fffefc" d="M 120.5,51.5 C 122.857,51.3367 125.19,51.5034 127.5,52C 137.333,61.8333 147.167,71.6667 157,81.5C 159.796,87.9072 157.796,91.9072 151,93.5C 149.373,93.3749 147.873,92.8749 146.5,92C 137,82.5 127.5,73 118,63.5C 115.523,58.6692 116.356,54.6692 120.5,51.5 Z"/></g>
<g><path style="opacity:1" fill="#fffefc" d="M 357.5,51.5 C 366.807,50.9694 369.641,54.9694 366,63.5C 356.833,72.6667 347.667,81.8333 338.5,91C 336.431,92.8744 334.098,93.8744 331.5,94C 326.879,91.9232 325.045,88.4232 326,83.5C 336.033,72.301 346.533,61.6344 357.5,51.5 Z"/></g>
<g><path style="opacity:1" fill="#1afdf9" d="M 232.5,84.5 C 236.967,84.1326 241.3,84.6326 245.5,86C 251.372,92.225 250.705,97.5583 243.5,102C 205.622,104.345 179.122,122.845 164,157.5C 158.418,175.398 158.084,193.398 163,211.5C 177.539,239.449 189.539,268.449 199,298.5C 200.562,306.215 202.229,313.882 204,321.5C 205.067,322.191 206.234,322.691 207.5,323C 219.167,323.333 230.833,323.667 242.5,324C 248.955,325.817 251.121,329.984 249,336.5C 247.363,338.81 245.196,340.31 242.5,341C 228.164,341.194 213.83,340.861 199.5,340C 193.417,337.585 188.917,333.418 186,327.5C 183.588,312.517 179.921,297.85 175,283.5C 166.97,263.081 157.97,243.081 148,223.5C 131.06,167.922 147.226,125.088 196.5,95C 208.088,89.6082 220.088,86.1082 232.5,84.5 Z"/></g>
<g><path style="opacity:1" fill="#12fdfb" d="M 273.5,93.5 C 282.891,94.019 291.391,97.019 299,102.5C 300.006,104.534 300.506,106.7 300.5,109C 299.244,116.165 298.411,123.331 298,130.5C 303.978,141.819 312.978,149.485 325,153.5C 330.854,152.229 336.687,150.896 342.5,149.5C 347.976,150.139 351.476,153.139 353,158.5C 355.366,162.896 356.866,167.563 357.5,172.5C 357.485,174.634 356.985,176.634 356,178.5C 349.983,182.008 344.316,186.008 339,190.5C 337.561,192.275 336.561,194.275 336,196.5C 335.087,205.576 335.42,214.576 337,223.5C 340.635,229.421 345.802,233.588 352.5,236C 356.927,238.685 358.76,242.518 358,247.5C 355.913,254.845 352.413,261.345 347.5,267C 344.167,267.667 340.833,267.667 337.5,267C 331.98,264.942 326.313,264.276 320.5,265C 311.288,271.212 303.788,279.045 298,288.5C 297.333,291.167 297.333,293.833 298,296.5C 301.391,302.617 302.058,308.95 300,315.5C 292.408,321.142 283.908,323.975 274.5,324C 270.472,320.113 267.306,315.613 265,310.5C 262.072,306.619 258.239,304.119 253.5,303C 248.5,302.667 243.5,302.333 238.5,302C 227.138,296.7 224.305,288.534 230,277.5C 232.408,275.044 235.241,273.211 238.5,272C 270.59,271.715 292.09,256.549 303,226.5C 308.349,197.195 299.182,173.695 275.5,156C 265.171,150.335 254.171,146.668 242.5,145C 234.25,139.151 232.417,131.651 237,122.5C 238.938,119.894 241.438,118.061 244.5,117C 256.67,116.166 264.837,110 269,98.5C 270.707,96.9625 272.207,95.2959 273.5,93.5 Z"/></g>
<g><path style="opacity:1" fill="#fffefc" d="M 226.5,162.5 C 227.873,162.343 229.207,162.51 230.5,163C 238.57,175.461 246.904,175.628 255.5,163.5C 259.546,162.257 263.046,163.257 266,166.5C 263.403,176.641 267.07,183.308 277,186.5C 285.787,183.947 289.787,187.281 289,196.5C 277.676,204.879 277.676,213.212 289,221.5C 290.001,230.171 286.334,233.504 278,231.5C 272.963,232.194 269.296,234.86 267,239.5C 266.674,243.53 266.674,247.53 267,251.5C 263.864,253.996 260.364,255.163 256.5,255C 252.705,247.437 246.705,244.77 238.5,247C 235.167,249 232.5,251.667 230.5,255C 221.095,255.921 218.095,251.921 221.5,243C 217.976,232.924 210.976,229.257 200.5,232C 197.903,228.912 197.069,225.412 198,221.5C 206.469,216.761 208.469,210.094 204,201.5C 196.672,197.945 195.505,192.778 200.5,186C 215.786,188.048 222.286,181.548 220,166.5C 222.173,165.067 224.34,163.734 226.5,162.5 Z"/></g>
<g><path style="opacity:1" fill="#fffefd" d="M 71.5,169.5 C 86.1705,169.333 100.837,169.5 115.5,170C 122.649,173.232 123.316,177.565 117.5,183C 101.833,183.667 86.1667,183.667 70.5,183C 66.3491,178.209 66.6825,173.709 71.5,169.5 Z"/></g>
<g><path style="opacity:1" fill="#fffefc" d="M 367.5,169.5 C 382.17,169.333 396.837,169.5 411.5,170C 416.143,172.072 417.643,175.572 416,180.5C 414.764,182.538 412.931,183.705 410.5,184C 396.167,184.667 381.833,184.667 367.5,184C 362.235,179.076 362.235,174.242 367.5,169.5 Z"/></g>
<g><path style="opacity:1" fill="#ffde5a" d="M 237.5,183.5 C 259.498,182.996 269.665,193.663 268,215.5C 262.729,230.417 252.229,236.584 236.5,234C 219.848,226.401 214.682,213.901 221,196.5C 225.166,190.35 230.666,186.017 237.5,183.5 Z"/></g>
<g><path style="opacity:1" fill="#fffefa" d="M 193.5,356.5 C 225.835,356.333 258.168,356.5 290.5,357C 296.368,360.04 297.868,364.54 295,370.5C 293.2,372.317 291.034,373.484 288.5,374C 257.167,374.667 225.833,374.667 194.5,374C 185.534,368.695 185.201,362.862 193.5,356.5 Z"/></g>
<g><path style="opacity:1" fill="#fffefd" d="M 215.5,388.5 C 232.837,388.333 250.17,388.5 267.5,389C 274.408,394.792 274.074,400.126 266.5,405C 249.833,405.667 233.167,405.667 216.5,405C 212.061,402.024 210.561,397.857 212,392.5C 213.376,391.295 214.542,389.962 215.5,388.5 Z"/></g>
<g><path style="opacity:1" fill="#25fcf6" d="M 271.5,425.5 C 287.552,423.179 298.218,429.513 303.5,444.5C 299.217,445.492 294.884,445.826 290.5,445.5C 290.276,441.438 288.276,438.605 284.5,437C 269.664,434.494 261.997,440.827 261.5,456C 261.478,471.996 269.145,478.33 284.5,475C 288.276,473.395 290.276,470.562 290.5,466.5C 294.5,466.5 298.5,466.5 302.5,466.5C 301.232,477.271 295.232,483.771 284.5,486C 265.798,488.733 254.298,480.899 250,462.5C 247.459,444.22 254.625,431.887 271.5,425.5 Z"/></g>
<g><path style="opacity:1" fill="#6ff0b7" d="M 48.5,427.5 C 44.5,427.5 40.5,427.5 36.5,427.5C 36.5,446.833 36.5,466.167 36.5,485.5C 35.5029,466.007 35.1696,446.34 35.5,426.5C 40.0323,426.182 44.3656,426.515 48.5,427.5 Z"/></g>
<g><path style="opacity:1" fill="#0ffdfb" d="M 48.5,445.5 C 48.2172,444.711 47.7172,444.044 47,443.5C 46.5001,457.496 46.3334,471.496 46.5,485.5C 43.1667,485.5 39.8333,485.5 36.5,485.5C 36.5,466.167 36.5,446.833 36.5,427.5C 40.5,427.5 44.5,427.5 48.5,427.5C 56.5591,440.606 64.3924,453.939 72,467.5C 72.4999,453.837 72.6666,440.171 72.5,426.5C 76.1667,426.5 79.8333,426.5 83.5,426.5C 83.5,446.167 83.5,465.833 83.5,485.5C 79.1161,485.826 74.7828,485.492 70.5,484.5C 62.8894,471.607 55.5561,458.607 48.5,445.5 Z"/></g>
<g><path style="opacity:1" fill="#c4e57e" d="M 399.5,426.5 C 399.666,433.508 399.5,440.508 399,447.5C 398.283,446.956 397.783,446.289 397.5,445.5C 398.167,439.167 398.833,432.833 399.5,426.5 Z"/></g>
<g><path style="opacity:1" fill="#1bfdf8" d="M 399.5,426.5 C 402.833,426.5 406.167,426.5 409.5,426.5C 409.5,446.167 409.5,465.833 409.5,485.5C 406.167,485.5 402.833,485.5 399.5,485.5C 399.66,483.801 399.494,482.134 399,480.5C 392.818,487.043 385.652,488.21 377.5,484C 370.954,478.909 367.954,472.242 368.5,464C 368.578,446.249 377.245,439.249 394.5,443C 395.571,443.852 396.571,444.685 397.5,445.5C 397.783,446.289 398.283,446.956 399,447.5C 399.5,440.508 399.666,433.508 399.5,426.5 Z"/></g>
<g><path style="opacity:1" fill="#1efdf7" d="M 139.5,465.5 C 128.48,465.168 117.48,465.501 106.5,466.5C 106.624,467.107 106.957,467.44 107.5,467.5C 110.589,476.876 116.589,479.376 125.5,475C 126.257,473.488 127.257,472.154 128.5,471C 131.817,470.502 135.15,470.335 138.5,470.5C 136.424,478.41 131.424,483.577 123.5,486C 111.87,488.101 103.37,483.935 98,473.5C 93.7016,447.797 104.202,437.964 129.5,444C 137.256,449.017 140.59,456.183 139.5,465.5 Z"/></g>
<g><path style="opacity:1" fill="#22fcf7" d="M 213.5,441.5 C 222.64,439.981 230.14,442.647 236,449.5C 237.438,461.424 237.938,473.424 237.5,485.5C 234.167,485.5 230.833,485.5 227.5,485.5C 227.66,483.801 227.494,482.134 227,480.5C 222.032,486.115 215.865,487.948 208.5,486C 200.936,482.994 198.103,477.494 200,469.5C 201.588,464.948 204.755,462.115 209.5,461C 214.832,459.767 220.166,458.6 225.5,457.5C 227.026,452.17 224.859,449.503 219,449.5C 215.446,450.192 212.946,452.192 211.5,455.5C 208.232,456.487 204.898,456.82 201.5,456.5C 202.569,449.103 206.569,444.103 213.5,441.5 Z"/></g>
<g><path style="opacity:1" fill="#22fcf6" d="M 328.5,441.5 C 348.821,439.989 358.321,449.322 357,469.5C 354.833,478.333 349.333,483.833 340.5,486C 323.519,487.685 314.519,480.019 313.5,463C 314.06,452.625 319.06,445.458 328.5,441.5 Z"/></g>
<g><path style="opacity:1" fill="#23fcf7" d="M 464.5,457.5 C 464.5,460.167 464.5,462.833 464.5,465.5C 453.833,465.5 443.167,465.5 432.5,465.5C 432.263,466.791 432.596,467.791 433.5,468.5C 438.705,479.256 445.372,480.256 453.5,471.5C 457.107,470.511 460.774,470.177 464.5,470.5C 460.41,483.054 451.744,488.221 438.5,486C 424.219,480.607 419.053,470.44 423,455.5C 430.615,441.186 441.782,437.686 456.5,445C 461.003,448.001 463.669,452.167 464.5,457.5 Z"/></g>
<g><path style="opacity:1" fill="#20fcf7" d="M 148.5,443.5 C 152.311,442.355 156.311,442.188 160.5,443C 163.338,447.33 166.338,451.496 169.5,455.5C 172.662,451.496 175.662,447.33 178.5,443C 182.541,442.173 186.541,442.34 190.5,443.5C 185.833,450.167 181.167,456.833 176.5,463.5C 181.167,470.5 185.833,477.5 190.5,484.5C 186.541,485.66 182.541,485.827 178.5,485C 175.872,480.242 172.872,475.742 169.5,471.5C 166.624,476.086 163.624,480.586 160.5,485C 156.5,485.667 152.5,485.667 148.5,485C 153.291,477.919 157.958,470.752 162.5,463.5C 158.165,456.515 153.498,449.849 148.5,443.5 Z"/></g>
<g><path style="opacity:1" fill="#66f1bb" d="M 48.5,445.5 C 47.8333,458.833 47.1667,472.167 46.5,485.5C 46.3334,471.496 46.5001,457.496 47,443.5C 47.7172,444.044 48.2172,444.711 48.5,445.5 Z"/></g>
<g><path style="opacity:1" fill="#f8df5e" d="M 128.5,457.5 C 121.646,457.824 114.979,457.491 108.5,456.5C 111.56,449.645 116.56,447.812 123.5,451C 125.79,452.777 127.457,454.944 128.5,457.5 Z"/></g>
<g><path style="opacity:1" fill="#fcde5a" d="M 331.5,450.5 C 341.402,449.569 346.402,454.069 346.5,464C 345.15,475.726 339.15,479.393 328.5,475C 326.959,473.421 325.792,471.587 325,469.5C 322.661,461.401 324.827,455.067 331.5,450.5 Z"/></g>
<g><path style="opacity:1" fill="#fcde5a" d="M 386.5,450.5 C 395.875,450.068 400.542,454.568 400.5,464C 399.56,474.307 394.227,478.307 384.5,476C 377.584,469.242 376.75,461.742 382,453.5C 383.652,452.601 385.152,451.601 386.5,450.5 Z"/></g>
<g><path style="opacity:1" fill="#f8df5e" d="M 453.5,456.5 C 447.021,457.491 440.354,457.824 433.5,457.5C 436.674,450.081 442.007,447.915 449.5,451C 451.464,452.451 452.797,454.284 453.5,456.5 Z"/></g>
<g><path style="opacity:1" fill="#bae685" d="M 108.5,456.5 C 114.979,457.491 121.646,457.824 128.5,457.5C 121.656,458.819 114.656,458.819 107.5,457.5C 107.624,456.893 107.957,456.56 108.5,456.5 Z"/></g>
<g><path style="opacity:1" fill="#bce684" d="M 453.5,456.5 C 454.043,456.56 454.376,456.893 454.5,457.5C 447.344,458.819 440.344,458.819 433.5,457.5C 440.354,457.824 447.021,457.491 453.5,456.5 Z"/></g>
<g><path style="opacity:1" fill="#6df0b7" d="M 139.5,465.5 C 128.833,466.167 118.167,466.833 107.5,467.5C 106.957,467.44 106.624,467.107 106.5,466.5C 117.48,465.501 128.48,465.168 139.5,465.5 Z"/></g>
<g><path style="opacity:1" fill="#6df0b9" d="M 464.5,457.5 C 465.477,460.287 465.81,463.287 465.5,466.5C 454.448,465.857 443.781,466.524 433.5,468.5C 432.596,467.791 432.263,466.791 432.5,465.5C 443.167,465.5 453.833,465.5 464.5,465.5C 464.5,462.833 464.5,460.167 464.5,457.5 Z"/></g>
<g><path style="opacity:1" fill="#fade5c" d="M 225.5,465.5 C 227.64,469.078 226.974,472.578 223.5,476C 219.125,478.085 214.958,477.918 211,475.5C 210.104,472.975 210.604,470.808 212.5,469C 216.942,467.826 221.275,466.659 225.5,465.5 Z"/></g>
</svg>
